<svg xmlns="http://www.w3.org/2000/svg" width="66" height="89" viewBox="0 0 66 89">
  <defs>
    <style>
      .cls-1 {
        fill: #fff;
        fill-rule: evenodd;
      }
    </style>
  </defs>
  <path id="H-Logo" class="cls-1" d="M342.907,5010.55a1.193,1.193,0,0,0-1.169,1.02h2.338A1.193,1.193,0,0,0,342.907,5010.55Zm0,0a1.193,1.193,0,0,0-1.169,1.02h2.338A1.193,1.193,0,0,0,342.907,5010.55ZM329,5005v89h66v-89H329Zm5.335,5.64h-0.9v2.35a0.315,0.315,0,0,0,.3.33h0.6v0.54h-0.809a0.823,0.823,0,0,1-.84-0.84v-2.35h-0.719v-0.61h0.719v-1.11h0.75v1.08h0.9v0.61Zm5.185,3.19h-0.749v-2.44a0.857,0.857,0,0,0-.9-0.9,1.208,1.208,0,0,0-1.079,1.08v2.26H336.1v-6h0.69v2.72a1.641,1.641,0,0,1,1.5-.58,1.265,1.265,0,0,1,1.229,1.24v2.62Zm5.275-1.69v0.03h-3.027a1.094,1.094,0,0,0,1.139,1.24,0.89,0.89,0,0,0,1.079-.72h0.69s-0.03,1.35-2.039,1.26c-2.1-.09-2.158-3.89,0-3.98A1.946,1.946,0,0,1,344.8,5012.14Zm29.494,54.27h-4.466v-14.53H353.937v14.53h-4.406v-31.74h4.406v13.05h15.886v-13.05h4.466v31.74Zm-31.382-55.86a1.193,1.193,0,0,0-1.169,1.02h2.338A1.193,1.193,0,0,0,342.907,5010.55Zm0,0a1.193,1.193,0,0,0-1.169,1.02h2.338A1.193,1.193,0,0,0,342.907,5010.55Zm0,0a1.193,1.193,0,0,0-1.169,1.02h2.338A1.193,1.193,0,0,0,342.907,5010.55Z" transform="translate(-329 -5005)"/>
</svg>
